<svg width="24" height="24" viewBox="0 0 24 24" fill="none" xmlns="http://www.w3.org/2000/svg">
<path d="M5.0126 0L4.57375 0.448598L0.204795 4.81755L0 5.02235L0.0195043 5.30516C0.331526 9.22925 2.5461 13.8878 6.32913 17.6709C10.1122 21.4539 14.7707 23.6685 18.6948 23.9805L18.9777 24L19.1824 23.7952L23.5514 19.4262L24 18.9874L23.5514 18.5486L19.1824 14.1796L18.7631 13.7603L18.3243 14.1503L15.5449 16.6469C13.8634 15.7102 12.3215 14.7303 10.7956 13.2044C9.26975 11.6785 8.28974 10.1366 7.35311 8.4551L9.84965 5.67574L10.2397 5.2369L9.8204 4.81755L5.45144 0.448598L5.0126 0ZM15.4376 0.438846L14.5599 1.32629L18.178 4.94433L14.5599 8.55262L15.4376 9.44006L19.0557 5.82202L22.6737 9.44006L23.5514 8.55262L19.9334 4.94433L23.5514 1.32629L22.6737 0.438846L19.0557 4.05689L15.4376 0.438846ZM5.0126 1.76514L8.52336 5.2759L6.10484 7.95774L5.81227 8.28931L6.02682 8.6794C7.05279 10.5631 8.16338 12.3275 9.91792 14.0821C11.6725 15.8366 13.4369 16.9472 15.3206 17.9732L15.7107 18.1877L16.0423 17.8952L18.7241 15.4766L22.2349 18.9874L18.5388 22.6835C15.0478 22.3296 10.7151 20.3015 7.20683 16.7932C3.69854 13.2849 1.67037 8.95216 1.31654 5.46119L5.0126 1.76514Z" fill="#384A59"/>
</svg>
