<svg width="20" height="22" viewBox="0 0 20 22" fill="none" xmlns="http://www.w3.org/2000/svg">
<path d="M16.534 8.7048H15.632V5.5296C15.632 2.484 13.102 0 9.99998 0C6.89798 0 4.36798 2.484 4.36798 5.5296V8.7048H3.46598C1.74998 8.7048 0.34198 10.0872 0.34198 11.772V18.036C0.34198 19.7208 1.74998 21.1032 3.46598 21.1032H16.534C18.25 21.1032 19.658 19.7208 19.658 18.036V11.772C19.658 10.0872 18.272 8.7048 16.534 8.7048ZM5.68798 5.5296C5.68798 3.1968 7.62398 1.296 9.99998 1.296C12.376 1.296 14.29 3.1968 14.29 5.508V8.6832H5.68798V5.5296ZM18.316 18.036C18.316 19.008 17.502 19.7856 16.534 19.7856H3.44398C2.45398 19.7856 1.66198 18.9864 1.66198 18.036V11.772C1.66198 10.8 2.47598 10.0224 3.44398 10.0224H16.512C17.502 10.0224 18.294 10.8216 18.294 11.772L18.316 18.036Z" fill="#545454"/>
</svg>
